<!-- icon666.com - MILLIONS vector ICONS FREE --><svg fill="none" viewBox="0 0 20 20" xmlns="http://www.w3.org/2000/svg" xmlns:xlink="http://www.w3.org/1999/xlink"><linearGradient id="paint0_linear_3139_252" gradientUnits="userSpaceOnUse" x1="10" x2="10" y1="0" y2="20"><stop offset="0" stop-color="#ee9ae5"></stop><stop offset="1" stop-color="#5961f9"></stop></linearGradient><path clip-rule="evenodd" d="m20 10c0 5.514-4.486 10-10 10s-10-4.486-10-10 4.486-10 10-10 10 4.486 10 10zm-8.414 1-1.293 1.293c-.0928.0929-.1665.2031-.2167.3244-.0503.1213-.0761.2513-.0761.3826s.0258.2613.0761.3827c.0502.1213.1239.2315.2167.3243.0928.0929.2031.1665.3244.2168.1213.0502.2513.0761.3826.0761s.2613-.0259.3826-.0761c.1213-.0503.2316-.1239.3244-.2168l3-3c.0932-.0926.1671-.2028.2176-.3241.0505-.1214.0764-.2515.0764-.3829 0-.13138-.0259-.26149-.0764-.38282-.0505-.12134-.1244-.2315-.2176-.32415l-3-3c-.0928-.09285-.2031-.16649-.3244-.21674s-.2513-.07611-.3826-.07611-.2613.02586-.3826.07611-.2316.12389-.3244.21674c-.0928.09284-.1665.20307-.2167.32437-.0503.12131-.0761.25133-.0761.38263s.0258.26132.0761.38262c.0502.12131.1239.23153.2167.32438l1.293 1.293h-5.586c-.26522 0-.51957.10536-.70711.29289-.18753.18754-.29289.44189-.29289.70708 0 .2652.10536.5196.29289.7071.18754.1876.44189.2929.70711.2929z" fill="url(#paint0_linear_3139_252)" fill-rule="evenodd"></path></svg>